{"asset":{"version":"2.0","generator":"GLTFExporter"},"scenes":[{"name":"AuxScene","nodes":[0]}],"scene":0,"nodes":[{"name":"cae_q","mesh":0}],"bufferViews":[{"buffer":0,"byteOffset":0,"byteLength":249408,"target":34962,"byteStride":12},{"buffer":0,"byteOffset":249408,"byteLength":83136,"target":34962,"byteStride":4},{"buffer":0,"byteOffset":332544,"byteLength":249408,"target":34962,"byteStride":12},{"buffer":0,"byteOffset":581952,"byteLength":249408,"target":34962,"byteStride":12},{"buffer":0,"byteOffset":831360,"byteLength":245400,"target":34963}],"buffers":[{"byteLength":1076760,"uri":"data:application/octet-stream;base64,"}],"accessors":[{"bufferView":0,"componentType":5126,"count":20784,"max":[8.040999412536621,42.03459548950195,8.040912628173828],"min":[-8.041000366210938,-2.2355605051611188e-14,-8.040605545043945],"type":"VEC3"},{"bufferView":1,"componentType":5126,"count":20784,"max":[2205],"min":[63.79998779296875],"type":"SCALAR"},{"bufferView":2,"componentType":5126,"count":20784,"max":[1,1,1],"min":[0.05000000074505806,0.05000000074505806,0.05000000074505806],"type":"VEC3"},{"bufferView":3,"componentType":5126,"count":20784,"max":[0.9999999403953552,1,0.9999991059303284],"min":[-0.9999999403953552,-1,-0.9999998211860657],"type":"VEC3"},{"bufferView":4,"componentType":5123,"count":122700,"max":[20783],"min":[0],"type":"SCALAR"}],"materials":[{"pbrMetallicRoughness":{"metallicFactor":0.5,"roughnessFactor":0.5},"doubleSided":true}],"meshes":[{"primitives":[{"mode":4,"attributes":{"POSITION":0,"_PRESSURE":1,"COLOR_0":2,"NORMAL":3},"indices":4,"material":0}]}]}