{"asset":{"version":"2.0","generator":"GLTFExporter"},"scenes":[{"name":"AuxScene","nodes":[0]}],"scene":0,"nodes":[{"name":"cae","mesh":0}],"bufferViews":[{"buffer":0,"byteOffset":0,"byteLength":314172,"target":34962,"byteStride":12},{"buffer":0,"byteOffset":314172,"byteLength":314172,"target":34962,"byteStride":12},{"buffer":0,"byteOffset":628344,"byteLength":314172,"target":34962,"byteStride":12},{"buffer":0,"byteOffset":942516,"byteLength":314124,"target":34963}],"buffers":[{"byteLength":1256640,"uri":"data:application/octet-stream;base64,"}],"accessors":[{"bufferView":0,"componentType":5126,"count":26181,"max":[8.040999412536621,42.03459548950195,8.040912628173828],"min":[-8.041000366210938,-2.3166257933780916e-14,-8.040605545043945],"type":"VEC3"},{"bufferView":1,"componentType":5126,"count":26181,"max":[1,1,1],"min":[0.05000000074505806,0.05000000074505806,0.05000000074505806],"type":"VEC3"},{"bufferView":2,"componentType":5126,"count":26181,"max":[0.9999999403953552,1,0.9999991059303284],"min":[-0.9999999403953552,-1,-0.9999998211860657],"type":"VEC3"},{"bufferView":3,"componentType":5123,"count":157062,"max":[26180],"min":[0],"type":"SCALAR"}],"materials":[{"pbrMetallicRoughness":{"metallicFactor":0.5,"roughnessFactor":0.5},"doubleSided":true}],"meshes":[{"primitives":[{"mode":4,"attributes":{"POSITION":0,"COLOR_0":1,"NORMAL":2},"indices":3,"material":0}]}]}